<svg width="50" height="67" viewBox="0 0 50 67" fill="none" xmlns="http://www.w3.org/2000/svg">
<g clip-path="url(#clip0_115_67)">
<path d="M31.4111 0H27.5215H23.6442L19.4969 4.70089L27.5215 13.7966L35.546 4.70089L31.4111 0Z" fill="#C76C61"/>
<path d="M31.8896 66.6081C31.0061 66.7183 30.0736 66.804 29.1043 66.8775C28.135 66.9509 27.1166 66.9999 26.0614 66.9999C21.4724 66.9999 17.2025 66.1674 13.2515 64.4903C9.00614 62.5561 5.80368 59.9241 3.61963 56.582C1.20245 52.7748 0 48.5636 0 43.9728C0 38.5374 1.49693 33.6284 4.50307 29.2458C7.74233 24.5449 12.135 21.3865 17.6687 19.7706C10.5399 24.9979 6.9816 31.3882 6.9816 38.9659C6.9816 43.7158 8.77301 48.1841 12.3681 52.3586C13.1902 50.9997 13.6074 49.0165 13.6074 46.409V27.7646L27.6074 15.8899C34.135 18.1424 42.0613 19.3911 48.0613 19.3911L40.4663 26.7485C38.5767 26.0752 36.6258 25.4019 34.589 24.753C32.5521 24.1042 30.4785 23.4554 28.3558 22.8311V59.9608C28.8221 59.9608 29.5337 60.022 30.4785 60.1567C31.4233 60.2913 32.1227 60.3525 32.6012 60.3525C36.3067 60.3525 39.9018 59.3365 43.3742 57.2921C43.546 57.1819 44.1595 56.7901 45.1902 56.1168C46.2209 55.4435 47.681 54.4764 49.5583 53.2155L50 53.2889C45.5828 61.0748 39.546 65.5064 31.8896 66.6081ZM26.2331 21.5701L22.4294 24.3123V39.0394C22.4294 42.0753 21.6319 44.7074 20.0491 46.9476C18.8712 48.5636 16.6871 50.6325 13.5092 53.1298C16.5767 56.3739 20.8098 58.5652 26.2331 59.7159V21.5701Z" fill="#DA9189"/>
</g>
<defs>
<clipPath id="clip0_115_67">
<rect width="50" height="67" fill="white"/>
</clipPath>
</defs>
</svg>
