<svg width="40" height="40" viewBox="0 0 40 40" fill="none" xmlns="http://www.w3.org/2000/svg">
<g clip-path="url(#clip0_198_195)">
<path d="M21.7501 16.3165L16.6667 12.4998V27.4998L21.7501 23.6832L26.6667 19.9998L21.7501 16.3165ZM21.7501 16.3165L16.6667 12.4998V27.4998L21.7501 23.6832L26.6667 19.9998L21.7501 16.3165ZM21.7501 16.3165L16.6667 12.4998V27.4998L21.7501 23.6832L26.6667 19.9998L21.7501 16.3165ZM18.3334 6.78317V3.4165C14.9834 3.74984 11.9334 5.08317 9.46675 7.09984L11.8334 9.48317C13.6834 8.04984 15.9001 7.08317 18.3334 6.78317ZM9.48341 11.8332L7.10008 9.4665C5.08342 11.9332 3.75008 14.9832 3.41675 18.3332H6.78341C7.08342 15.8998 8.05008 13.6832 9.48341 11.8332ZM6.78341 21.6665H3.41675C3.75008 25.0165 5.08342 28.0665 7.10008 30.5332L9.48341 28.1498C8.05008 26.3165 7.08342 24.0998 6.78341 21.6665ZM9.46675 32.8998C11.9334 34.9165 15.0001 36.2498 18.3334 36.5832V33.2165C15.9001 32.9165 13.6834 31.9498 11.8334 30.5165L9.46675 32.8998ZM36.6667 19.9998C36.6667 28.5998 30.1334 35.6998 21.7501 36.5832V33.2165C28.2834 32.3498 33.3334 26.7498 33.3334 19.9998C33.3334 13.2498 28.2834 7.64984 21.7501 6.78317V3.4165C30.1334 4.29984 36.6667 11.3998 36.6667 19.9998Z" fill="#D66969"/>
</g>
<defs>
<clipPath id="clip0_198_195">
<rect width="40" height="40" fill="white"/>
</clipPath>
</defs>
</svg>
