<svg width="40" height="40" viewBox="0 0 40 40" fill="none" xmlns="http://www.w3.org/2000/svg">
<g clip-path="url(#clip0_196_167)">
<path d="M25.8333 1.6665H12.4999C10.1999 1.6665 8.33325 3.53317 8.33325 5.83317V34.1665C8.33325 36.4665 10.1999 38.3332 12.4999 38.3332H25.8333C28.1333 38.3332 29.9999 36.4665 29.9999 34.1665V5.83317C29.9999 3.53317 28.1333 1.6665 25.8333 1.6665ZM19.1666 36.6665C17.7833 36.6665 16.6666 35.5498 16.6666 34.1665C16.6666 32.7832 17.7833 31.6665 19.1666 31.6665C20.5499 31.6665 21.6666 32.7832 21.6666 34.1665C21.6666 35.5498 20.5499 36.6665 19.1666 36.6665ZM26.6666 29.9998H11.6666V6.6665H26.6666V29.9998Z" fill="#D66969"/>
</g>
<defs>
<clipPath id="clip0_196_167">
<rect width="40" height="40" fill="white"/>
</clipPath>
</defs>
</svg>
