<svg width="40" height="40" viewBox="0 0 40 40" fill="none" xmlns="http://www.w3.org/2000/svg">
<path d="M10.0001 36.6668C9.08341 36.6668 8.29869 36.3404 7.64591 35.6877C6.99314 35.0349 6.66675 34.2502 6.66675 33.3335V6.66683C6.66675 5.75016 6.99314 4.96544 7.64591 4.31266C8.29869 3.65988 9.08341 3.3335 10.0001 3.3335H30.0001C30.9167 3.3335 31.7015 3.65988 32.3542 4.31266C33.007 4.96544 33.3334 5.75016 33.3334 6.66683V33.3335C33.3334 34.2502 33.007 35.0349 32.3542 35.6877C31.7015 36.3404 30.9167 36.6668 30.0001 36.6668H10.0001ZM10.0001 33.3335H30.0001V6.66683H10.0001V33.3335ZM11.6667 30.0002H28.3334L22.5834 22.5002L18.7501 27.5002L16.1667 24.1668L11.6667 30.0002Z" fill="#D66969"/>
</svg>
